<?xml version="1.0" encoding="UTF-8" standalone="no"?>
<svg
   xmlns:dc="http://purl.org/dc/elements/1.1/"
   xmlns:cc="http://creativecommons.org/ns#"
   xmlns:rdf="http://www.w3.org/1999/02/22-rdf-syntax-ns#"
   xmlns:svg="http://www.w3.org/2000/svg"
   xmlns="http://www.w3.org/2000/svg"
   xmlns:sodipodi="http://sodipodi.sourceforge.net/DTD/sodipodi-0.dtd"
   xmlns:inkscape="http://www.inkscape.org/namespaces/inkscape"
   width="6.07778in"
   height="1.54444in"
   viewBox="0 0 547 139"
   version="1.1"
   id="svg3"
   sodipodi:docname="oikos-logo-dark.svg"
   inkscape:export-filename="D:\trondapptest\swap-frontend-master\public\oikos-logo.png"
   inkscape:export-xdpi="96"
   inkscape:export-ydpi="96"
   inkscape:version="0.92.4 (5da689c313, 2019-01-14)">
  <metadata
     id="metadata9">
    <rdf:RDF>
      <cc:Work
         rdf:about="">
        <dc:format>image/svg+xml</dc:format>
        <dc:type
           rdf:resource="http://purl.org/dc/dcmitype/StillImage" />
        <dc:title></dc:title>
      </cc:Work>
    </rdf:RDF>
  </metadata>
  <defs
     id="defs7" />
  <sodipodi:namedview
     pagecolor="#ffffff"
     bordercolor="#666666"
     borderopacity="1"
     objecttolerance="10"
     gridtolerance="10"
     guidetolerance="10"
     inkscape:pageopacity="0"
     inkscape:pageshadow="2"
     inkscape:window-width="1295"
     inkscape:window-height="819"
     id="namedview5"
     showgrid="false"
     inkscape:zoom="0.98"
     inkscape:cx="576.47496"
     inkscape:cy="130.15257"
     inkscape:window-x="290"
     inkscape:window-y="115"
     inkscape:window-maximized="0"
     inkscape:current-layer="svg3" />
  <rect
     style="fill:#000000;stroke-width:0.93750274"
     id="rect3963"
     width="553.89191"
     height="144.45195"
     x="-1.9141561"
     y="-2.5820377"
     inkscape:export-xdpi="96"
     inkscape:export-ydpi="96"
     inkscape:export-filename="D:\trondapptest\swap-frontend-master\public\locales\oikos-logo-dark.svg.png" />
  <text
     xml:space="preserve"
     style="font-style:normal;font-weight:normal;font-size:37.50011063px;line-height:1.25;font-family:sans-serif;letter-spacing:0px;word-spacing:0px;fill:#ffffff;fill-opacity:1;stroke:none;stroke-width:0.93750274;"
     x="190.50313"
     y="133.2262"
     id="text3943"><tspan
       sodipodi:role="line"
       id="tspan3941"
       x="190.50313"
       y="133.2262"
       style="font-size:180.0005188px;stroke-width:0.93750274;fill:#ffffff;">F</tspan></text>
  <text
     xml:space="preserve"
     style="font-style:normal;font-weight:normal;font-size:48.28168488px;line-height:1.25;font-family:sans-serif;letter-spacing:0px;word-spacing:0px;fill:#ffffff;fill-opacity:1;stroke:none;stroke-width:1.2070421;"
     x="324.22388"
     y="105.27333"
     id="text3949"
     transform="scale(0.98022561,1.0201733)"><tspan
       sodipodi:role="line"
       id="tspan3947"
       x="324.22388"
       y="105.27333"
       style="font-size:115.87602997px;stroke-width:1.2070421;fill:#ffffff;">R</tspan></text>
  <text
     xml:space="preserve"
     style="font-style:normal;font-weight:normal;font-size:66.07475281px;line-height:1.25;font-family:sans-serif;letter-spacing:0px;word-spacing:0px;fill:#ffffff;fill-opacity:1;stroke:none;stroke-width:1.6518687;"
     x="449.4342"
     y="86.361908"
     id="text3953"
     transform="scale(0.95768681,1.0441827)"><tspan
       sodipodi:role="line"
       id="tspan3951"
       x="449.4342"
       y="86.361908"
       style="stroke-width:1.6518687;fill:#ffffff;">A</tspan></text>
  <text
     xml:space="preserve"
     style="font-style:normal;font-weight:normal;font-size:26.8005352px;line-height:1.25;font-family:sans-serif;letter-spacing:0px;word-spacing:0px;fill:#ffffff;fill-opacity:1;stroke:none;stroke-width:0.67001337;"
     x="509.50711"
     y="73.890907"
     id="text3957"
     transform="scale(0.97877766,1.0216825)"><tspan
       sodipodi:role="line"
       id="tspan3955"
       x="509.50711"
       y="73.890907"
       style="stroke-width:0.67001337;fill:#ffffff;">G</tspan></text>
  <path
     style="fill:#999999;stroke-width:1.02040815"
     d="M -1.0764131,74.13827 V -2.3923422 H 293.82155 588.71951 V 74.13827 150.66888 H 293.82155 -1.0764131 Z M 241.78073,109.34235 V 76.179086 h 27.55102 27.55102 V 67.505617 58.832148 H 269.33175 241.78073 V 38.949373 19.066598 l 30.35714,-0.270286 30.35715,-0.270287 0.29636,-8.418367 0.29637,-8.4183676 H 262.23016 221.37257 V 72.097454 142.50562 h 10.20408 10.20408 z M 363.2093,95.566842 V 76.179086 h 7.52551 c 15.824,0 17.99426,1.797201 28.4224,23.536725 l 7.30983,15.238789 h 6.88451 6.8845 l -3.37251,-7.39796 c -9.99425,-21.923377 -17.13296,-33.72126 -21.18177,-35.006301 -1.96002,-0.622085 -1.8756,-0.796374 1.07868,-2.227179 4.5623,-2.209588 9.02595,-7.685006 10.39655,-12.753125 1.70647,-6.310108 0.71571,-17.732044 -1.99726,-23.025246 -2.73032,-5.327063 -9.44122,-9.868021 -16.85952,-11.408052 -2.89657,-0.601327 -12.5969,-0.966368 -21.55627,-0.811201 l -16.28975,0.282122 -0.2655,46.173469 -0.2655,46.173473 h 6.64305 6.64305 z m 106.13362,-5.645811 2.21837,-6.666217 10.8192,0.288666 10.81919,0.288668 2.03802,6.377551 c 2.03727,6.375231 2.03946,6.377551 5.99194,6.377551 3.6303,0 3.89586,-0.187916 3.24446,-2.295919 -0.39021,-1.262755 -4.5538,-13.282583 -9.25243,-26.71073 -4.69864,-13.428147 -8.54298,-24.563351 -8.54298,-24.744898 0,-0.181547 -1.97891,-0.330086 -4.39756,-0.330086 h -4.39757 l -9.00362,25.765306 c -4.95199,14.170918 -9.22119,26.339286 -9.48712,27.040816 -0.33707,0.889242 0.76043,1.275511 3.62411,1.275511 h 4.10762 z m 80.04286,-9.824103 c 2.26394,-1.031522 2.59903,-1.820879 2.59903,-6.122449 v -4.93825 h -4.08163 c -2.94785,0 -4.08163,0.425171 -4.08163,1.530612 0,0.86674 0.91456,1.530613 2.10859,1.530613 1.69828,0 2.04576,0.546039 1.78571,2.806122 -0.72276,6.281531 -11.03716,2.209442 -11.03716,-4.357436 0,-2.882688 1.669,-6.66989 3.46908,-7.871836 1.66141,-1.109347 7.5372,-0.939109 8.26561,0.239476 1.04388,1.689033 2.55102,1.150676 2.55102,-0.911235 0,-2.374479 -1.91384,-3.170397 -7.62347,-3.170397 -5.498,0 -8.52361,2.328592 -9.6777,7.448209 -2.38534,10.581541 6.2219,18.145358 15.72255,13.816571 z"
     id="path3965"
     inkscape:connector-curvature="0"
     transform="matrix(0.93750273,0,0,0.93750273,-8.8527306e-4,0)" />
  <path
     style="fill:#999999;stroke-width:1.02040815"
     d="M 363.2093,49.13827 V 33.321944 l 9.94898,0.0016 c 15.835,0.0025 21.17347,3.989894 21.17347,15.814741 0,11.824847 -5.33847,15.812217 -21.17347,15.814741 l -9.94898,0.0016 z"
     id="path3967"
     inkscape:connector-curvature="0"
     transform="matrix(0.93750273,0,0,0.93750273,-8.8527306e-4,0)" />
  <path
     style="fill:#808080;stroke-width:1.02040815"
     d="m 477.51816,65.209699 c 2.06878,-6.033164 3.98019,-11.654754 4.24756,-12.492423 0.26738,-0.837669 2.36668,4.098555 4.66511,10.969388 l 4.17895,12.492422 h -8.42652 -8.42653 z"
     id="path3969"
     inkscape:connector-curvature="0"
     transform="matrix(0.93750273,0,0,0.93750273,-8.8527306e-4,0)" />
  <path
     style="fill:#666666;stroke-width:1.02040815"
     d="M -1.0764131,74.13827 V -2.3923422 H 293.82155 588.71951 V 74.13827 150.66888 H 293.82155 -1.0764131 Z M 241.78073,109.08725 V 76.179086 h 27.29592 27.29592 V 67.505617 58.832148 H 269.07665 241.78073 V 38.934188 19.036229 h 30.53728 30.53726 l 0.33008,-8.675851 0.33007,-8.6758514 -41.07142,0.00238 -41.07143,0.00238 V 71.842352 141.99541 h 10.20408 10.20408 z M 363.2093,95.203411 V 75.962429 l 9.43878,0.731878 c 14.43942,1.119624 15.36845,1.972637 26.49701,24.329003 l 6.52566,13.10952 7.3412,0.15579 c 4.03767,0.0857 7.34098,-0.0248 7.34071,-0.24539 -0.002,-1.73353 -14.40899,-29.700878 -15.29983,-29.700878 -0.6312,0 -0.8993,-0.40182 -0.59578,-0.892933 0.70394,-1.138996 -4.65398,-8.579416 -7.72924,-10.733404 -1.28697,-0.901433 -1.77992,-1.638969 -1.09544,-1.638969 1.53428,0 9.66821,-7.22845 8.94629,-7.95037 -0.28672,-0.28672 0.27512,-1.103642 1.24854,-1.815379 1.47327,-1.077219 1.76793,-2.975041 1.75837,-11.325384 -0.006,-5.517225 -0.35734,-11.28565 -0.78005,-12.818725 -0.89342,-3.240249 -6.68621,-10.19649 -7.87781,-9.460038 -0.44588,0.275567 -1.06442,-0.1602 -1.37455,-0.968371 -1.21902,-3.176723 -10.50492,-4.641325 -29.42702,-4.641325 H 349.944 v 46.173469 46.173467 h 6.63265 6.63265 z m 106.50147,-5.457901 1.95096,-6.099105 10.3146,0.464069 c 5.67303,0.255239 10.60255,0.756214 10.95448,1.11328 0.35193,0.357065 1.38387,2.945128 2.2932,5.751251 1.61937,4.997307 1.73716,5.102041 5.73767,5.102041 2.58721,0 4.08436,-0.467545 4.08436,-1.275511 0,-0.70153 -0.36079,-1.27551 -0.80175,-1.27551 -0.44097,0 -0.80613,-0.803571 -0.81149,-1.785714 -0.005,-0.982143 -3.66243,-12.475806 -8.12683,-25.541475 l -8.11708,-23.75576 -4.98934,0.286373 -4.98935,0.286372 -8.98603,25.510204 c -4.94233,14.030612 -9.01125,25.969388 -9.04204,26.530612 -0.0308,0.561225 1.88657,0.968112 4.26084,0.904193 l 4.31685,-0.116215 z m 80.48833,-9.642991 c 1.33548,-0.698518 1.78571,-2.211343 1.78571,-6.000151 v -5.066139 h -4.08163 c -2.94785,0 -4.08163,0.425171 -4.08163,1.530612 0,0.841837 0.68877,1.530613 1.53061,1.530613 0.95238,0 1.53061,0.963718 1.53061,2.55102 0,2.009274 -0.51774,2.551021 -2.43798,2.551021 -5.81832,0 -8.82391,-6.455077 -5.71252,-12.268752 1.01092,-1.888926 1.90324,-2.144892 6.44761,-1.849545 4.70831,0.306001 5.27432,0.123777 5.27432,-1.69803 0,-1.773547 -0.78342,-2.081342 -5.98205,-2.350263 -4.50093,-0.23283 -6.45299,0.116747 -7.8841,1.411884 -1.04613,0.946732 -1.65619,2.119147 -1.35569,2.605366 0.3005,0.486218 0.0809,0.884033 -0.48803,0.884033 -1.64808,0 -2.39172,6.364287 -1.13393,9.704496 1.79584,4.769046 5.47097,7.361619 10.46302,7.380998 2.38698,0.0093 5.14353,-0.403457 6.12568,-0.917163 z"
     id="path3971"
     inkscape:connector-curvature="0"
     transform="matrix(0.93750273,0,0,0.93750273,-8.8527306e-4,0)" />
  <path
     style="fill:#666666;stroke-width:1.02040815"
     d="M 363.2093,49.13827 V 33.059043 l 10.36486,0.734833 c 5.83624,0.413769 11.84003,1.438292 13.74115,2.344874 4.72644,2.253881 6.8415,7.163845 6.30154,14.628617 -0.72211,9.983142 -4.55777,12.61747 -19.96147,13.70954 l -10.44608,0.74059 z"
     id="path3973"
     inkscape:connector-curvature="0"
     transform="matrix(0.93750273,0,0,0.93750273,-8.8527306e-4,0)" />
  <path
     style="fill:#666666;stroke-width:1.02040815"
     d="m 474.68498,74.903576 c 0.25825,-0.70153 2.00028,-5.867347 3.87119,-11.479592 l 3.40165,-10.204081 1.47849,3.82653 c 0.81317,2.104592 1.86096,3.826531 2.32841,3.826531 0.46746,0 0.58561,0.688775 0.26257,1.530612 -0.32305,0.841837 -0.0935,1.530612 0.5102,1.530612 0.60366,0 0.83325,0.688776 0.51021,1.530613 -0.32305,0.841836 -0.17744,1.530612 0.32357,1.530612 0.501,0 0.94041,0.803571 0.97645,1.785714 0.036,0.982143 0.41381,3.04847 0.83948,4.591837 l 0.77395,2.806122 h -7.87285 c -5.86843,0 -7.75331,-0.324743 -7.40332,-1.27551 z"
     id="path3975"
     inkscape:connector-curvature="0"
     transform="matrix(0.93750273,0,0,0.93750273,-8.8527306e-4,0)" />
  <path
     style="fill:#4d4d4d;stroke-width:0.72153753"
     d="M -1.2634612,73.99044 V -2.4925388 H 293.84539 588.95424 V 73.99044 150.47342 H 293.84539 -1.2634612 Z M 241.89469,109.16539 V 76.155052 h 27.41842 27.41843 v -8.65845 -8.658451 H 269.31311 241.89469 V 38.995869 19.153587 l 18.21882,-0.180384 c 10.02035,-0.09921 23.83051,-0.0995 30.68924,-6.34e-4 l 12.47042,0.179751 -0.15763,-4.869745 c -0.0867,-2.678359 0.0954,-6.5743769 0.40457,-8.6578165 l 0.56222,-3.7880721 H 262.88698 221.69164 V 72.006211 142.17574 h 10.10152 10.10153 z M 363.11299,94.915028 V 75.433515 l 7.03499,0.127416 c 6.97553,0.126334 6.9923,0.130909 1.98423,0.541153 l -5.05076,0.413737 6.74395,0.538238 c 12.0025,0.957913 14.13027,2.743986 22.5563,18.93396 2.48112,4.767271 4.77937,8.776671 5.10722,8.909781 0.32785,0.1331 0.41256,0.53897 0.18824,0.90192 -0.22431,0.36295 -0.0448,0.65991 0.39886,0.65991 0.44369,0 0.60603,0.32469 0.36077,0.72154 -0.24527,0.39684 -0.048,0.72153 0.43844,0.72153 0.48641,0 0.68182,0.20255 0.43427,0.45011 -0.24756,0.24756 0.19196,1.70868 0.97671,3.24692 l 1.42683,2.79681 h 7.2007 c 5.88392,0 7.20072,-0.19574 7.20072,-1.07037 0,-2.05145 -5.3526,-11.91716 -6.47168,-11.92835 -0.97644,-0.01 -0.97901,-0.0921 -0.0222,-0.71049 0.89774,-0.58017 0.83622,-0.703212 -0.36077,-0.721539 -1.197,-0.01833 -1.25851,-0.141371 -0.36077,-0.721538 0.78645,-0.508244 0.82412,-0.70246 0.1378,-0.710491 -0.51948,-0.0058 -0.74383,-0.335738 -0.49857,-0.732584 0.24527,-0.396845 0.0829,-0.721537 -0.36077,-0.721537 -0.44369,0 -0.60603,-0.324692 -0.36077,-0.721538 0.24527,-0.396845 0.0829,-0.721537 -0.36077,-0.721537 -0.44368,0 -0.60603,-0.324692 -0.36076,-0.721538 0.24526,-0.396846 0.15139,-0.721537 -0.20861,-0.721537 -0.35999,0 -1.2235,-1.261739 -1.91891,-2.803874 -0.6954,-1.542127 -2.18815,-4.199262 -3.31723,-5.904738 -1.12907,-1.705484 -1.88902,-3.365965 -1.68878,-3.689972 0.20025,-0.323999 0.0202,-0.589092 -0.40003,-0.589092 -0.42027,0 -0.68295,-0.306646 -0.58374,-0.681442 0.28692,-1.083901 -4.78217,-7.236696 -5.7012,-6.920043 -0.45696,0.15744 -0.99477,-0.340659 -1.19514,-1.106896 -0.20038,-0.766229 -0.14917,-1.393144 0.11378,-1.393144 0.80781,0 8.62296,-7.840235 8.2184,-8.244788 -0.20883,-0.208832 0.13332,-0.576555 0.76032,-0.817161 0.68194,-0.261683 0.96409,-0.895928 0.7022,-1.578424 -0.2681,-0.698655 -0.14238,-0.958363 0.32429,-0.669939 1.18518,0.732477 1.42907,-1.351578 1.25181,-10.696583 -0.20221,-10.660233 -0.54267,-13.541048 -1.64365,-13.908046 -0.47057,-0.156854 -0.70106,-0.53521 -0.51219,-0.840791 0.46939,-0.759492 -4.63785,-6.637616 -5.37258,-6.183523 -0.32326,0.199785 -1.35124,-0.46625 -2.28439,-1.480077 -3.21448,-3.492379 -4.55914,-3.671737 -31.82083,-4.24443 l -16.41499,-0.344833 10e-4,27.210063 c 7.2e-4,14.965534 0.21527,35.733225 0.47656,46.150423 l 0.47509,18.940359 h 6.37805 6.37804 V 94.915028 Z m 103.6439,1.008471 c 1.16592,-0.312837 1.85348,-1.508532 2.79492,-4.860529 0.68673,-2.445096 1.32517,-4.932661 1.41874,-5.52793 0.14321,-0.91097 1.7337,-1.054844 10.04687,-0.908841 5.4322,0.0954 10.4647,0.488141 11.18336,0.87275 0.71864,0.384608 1.72368,2.188834 2.2334,4.009389 1.39095,4.968002 3.16468,6.849765 6.45651,6.849765 3.14206,0 5.37976,-1.81318 3.59726,-2.914824 -0.56975,-0.352125 -1.07649,-0.97676 -1.1261,-1.388087 -0.0496,-0.411319 -0.17136,-0.910198 -0.27058,-1.10862 -0.20945,-0.418911 -0.25659,-0.605601 -1.00204,-3.968457 -1.05908,-4.777704 -2.87012,-10.101525 -3.43631,-10.101525 -0.31191,0 -0.38023,-0.487038 -0.1518,-1.082307 0.22843,-0.595268 0.0661,-1.082306 -0.36077,-1.082306 -0.42685,0 -0.58919,-0.487038 -0.36077,-1.082306 0.22843,-0.595269 0.0661,-1.082306 -0.36077,-1.082306 -0.42684,0 -0.58919,-0.487038 -0.36077,-1.082307 0.22844,-0.595268 0.0367,-1.082306 -0.42599,-1.082306 -0.46272,0 -0.66835,-0.27987 -0.45694,-0.621937 0.5191,-0.83992 -4.58867,-15.973426 -5.39125,-15.973426 -0.34923,0 -0.44808,-0.487038 -0.21965,-1.082307 0.22843,-0.595268 0.0367,-1.082306 -0.426,-1.082306 -0.46272,0 -0.66576,-0.284048 -0.4512,-0.631217 0.21456,-0.347169 -0.20114,-2.376493 -0.92379,-4.509609 -1.26134,-3.723242 -1.42678,-3.887894 -4.1356,-4.115894 -3.76897,-0.317233 -8.47201,1.099899 -7.97227,2.402217 0.20873,0.543933 0.14135,1.09112 -0.14973,1.21597 -0.83607,0.358607 -3.76608,8.586176 -3.31668,9.313326 0.22245,0.359938 0.0258,0.654432 -0.43685,0.654432 -0.46273,0 -0.65443,0.487038 -0.426,1.082307 0.22842,0.595268 0.0661,1.082306 -0.36077,1.082306 -0.42685,0 -0.5892,0.487038 -0.36077,1.082306 0.22843,0.595269 0.13063,1.082307 -0.21733,1.082307 -0.80517,0 -3.75116,8.634647 -3.23238,9.474047 0.21328,0.345111 0.009,0.627478 -0.45352,0.627478 -0.46272,0 -0.65442,0.487038 -0.42599,1.082306 0.22842,0.595269 0.0661,1.082307 -0.36077,1.082307 -0.42686,0 -0.59725,0.466062 -0.37866,1.035687 0.21859,0.569633 0.13918,1.137843 -0.17646,1.262691 -0.86586,0.342499 -3.75497,8.531907 -3.28067,9.299349 0.22721,0.367623 0.0345,0.668411 -0.42821,0.668411 -0.46272,0 -0.65443,0.487037 -0.426,1.082306 0.22843,0.595268 0.0661,1.082306 -0.36076,1.082306 -0.42686,0 -0.5892,0.487038 -0.36077,1.082307 0.22842,0.595268 0.15221,1.082306 -0.16937,1.082306 -0.32157,0 -0.98744,1.344296 -1.4797,2.987317 -0.73183,2.442635 -0.71977,3.098419 0.0662,3.596641 1.10728,0.701919 4.58147,0.801931 6.83676,0.196813 z m 82.82233,-15.669111 c 1.83909,-0.334836 2.46452,-2.128261 2.52589,-7.243068 0.0429,-3.569013 -0.12672,-4.157945 -1.0906,-3.788072 -0.62773,0.240886 -2.41353,0.437966 -3.96846,0.437966 -2.03199,0 -2.82714,0.30441 -2.82714,1.082307 0,0.595268 0.48704,1.082306 1.08231,1.082306 0.7559,0 1.08231,0.761626 1.08231,2.525381 0,2.338987 -0.16387,2.525382 -2.22012,2.525382 -1.50834,0 -2.91919,-0.699076 -4.40062,-2.180501 -1.88822,-1.888221 -2.13973,-2.589418 -1.87637,-5.231147 0.59724,-5.990767 0.82887,-6.17264 7.95595,-6.246852 4.32258,-0.04501 4.87038,-0.208237 4.87038,-1.451205 0,-2.059589 -1.21761,-2.513467 -7.13357,-2.659117 -4.87146,-0.119934 -5.47637,0.027 -7.03499,1.708788 -0.93789,1.012003 -1.70526,2.27963 -1.70526,2.816951 0,0.537319 -0.31451,0.976945 -0.6989,0.976945 -0.38438,0 -0.512,0.487038 -0.28357,1.082306 0.22843,0.595268 0.0559,1.082306 -0.38341,1.082306 -1.00539,0 -1.06423,5.523053 -0.0654,6.140342 0.40332,0.249263 0.58085,0.699899 0.3945,1.001415 -0.63634,1.02962 4.00818,5.826524 6.31313,6.520261 2.05548,0.618646 5.41928,0.553708 9.46397,-0.182694 z"
     id="path3995"
     inkscape:connector-curvature="0"
     transform="matrix(0.93750273,0,0,0.93750273,-8.8527306e-4,0)" />
  <path
     style="fill:#4d4d4d;stroke-width:0.72153753"
     d="m 363.43715,64.694101 c -0.17828,-0.178289 -0.32416,-7.250922 -0.32416,-15.716963 v -15.3928 l 3.42731,0.0059 c 4.89992,0.0085 15.9706,1.330731 18.94036,2.262208 5.38419,1.688778 7.92886,5.939569 7.92886,13.244933 0,8.146711 -2.66139,11.876495 -9.74203,13.652908 -4.32367,1.084735 -19.6197,2.554429 -20.23034,1.943798 z"
     id="path3997"
     inkscape:connector-curvature="0"
     transform="matrix(0.93750273,0,0,0.93750273,-8.8527306e-4,0)" />
  <path
     style="fill:#333333;stroke-width:0.72153753"
     d="m 475.45245,75.35333 c -1.02902,-0.598631 -1.12415,-0.972979 -0.4528,-1.781903 0.46744,-0.563234 0.60804,-1.024062 0.31243,-1.024062 -0.29561,0 -0.20063,-0.405865 0.21106,-0.901922 0.41169,-0.496057 0.81504,-1.226614 0.89633,-1.62346 0.0813,-0.396845 0.44761,-1.510114 0.81406,-2.47393 0.36644,-0.963817 1.53135,-4.594117 2.58868,-8.067334 1.05733,-3.473217 2.18503,-6.152642 2.50599,-5.954278 0.32096,0.198364 0.39676,0.662918 0.16844,1.032342 -0.22832,0.369425 -0.14036,0.671681 0.19545,0.671681 0.33582,0 0.66341,0.701342 0.72798,1.558537 0.0646,0.857196 0.38935,1.750099 0.72172,1.984229 0.9272,0.65313 3.08852,6.675745 2.65022,7.384941 -0.21316,0.344897 0.0996,0.814009 0.69492,1.042472 0.59536,0.228462 0.90589,0.875553 0.69007,1.437979 -0.21582,0.562425 -0.0138,1.022592 0.44891,1.022592 0.46272,0 0.61821,0.360994 0.34553,0.802208 -0.27269,0.441214 -0.0483,1.085627 0.49857,1.432027 0.82323,0.521429 0.8081,0.635669 -0.0879,0.663814 -0.82764,0.026 -0.75275,0.283259 0.31829,1.093355 0.77033,0.582648 0.99469,1.059359 0.49857,1.059359 -0.49611,0 -0.70135,0.324692 -0.45609,0.721538 0.60846,0.984517 -12.58747,0.910473 -14.29038,-0.08019 z"
     id="path3999"
     inkscape:connector-curvature="0"
     transform="matrix(0.93750273,0,0,0.93750273,-8.8527306e-4,0)" />
  <path
     style="fill:#333333;stroke-width:0.72153753"
     d="M 293.66501,150.6538 -1.2634612,150.47167 V 73.989567 -2.4925388 H 293.84539 588.95424 V 74.351208 c 0,42.264062 -0.0812,76.762972 -0.18038,76.664242 -0.0992,-0.0987 -132.8982,-0.26147 -295.10885,-0.36165 z m -51.94343,-41.48841 0.18767,-33.010338 h 27.41114 27.41115 v -8.297681 -8.297682 l -27.59881,4.51e-4 -27.59881,4.51e-4 0.20197,-20.09383 0.20197,-20.093829 13.57018,-0.409967 c 7.4636,-0.225482 21.30223,-0.224107 30.7525,0.003 l 17.18232,0.413023 -0.39007,-6.25231 c -0.21454,-3.4387704 -0.10113,-6.4308877 0.25203,-6.6491485 0.35315,-0.2182369 0.6421,-1.3544082 0.6421,-2.5248014 V 1.8247706 l -40.94726,0.1863423 -40.94725,0.1863423 -0.18605,69.2676028 c -0.10233,38.097182 -0.0277,69.682932 0.16581,70.190572 0.26684,0.69993 2.66569,0.87429 9.92681,0.72154 l 9.57494,-0.20143 z M 363.11299,94.915028 V 75.433515 l 4.87038,0.09498 c 3.80103,0.07413 4.31591,0.198329 2.345,0.565678 -2.15578,0.401803 -1.73339,0.549422 2.88615,1.008623 8.60207,0.85508 10.82588,1.698225 14.43075,5.471333 2.82314,2.954898 12.18534,18.848501 13.94972,23.681531 0.33071,0.90587 0.91808,1.64704 1.30528,1.64704 0.3872,0 0.5195,0.29852 0.29401,0.66337 -0.22549,0.36485 0.0646,1.13793 0.64459,1.71795 0.58002,0.58002 0.85358,1.25558 0.60791,1.50124 -0.24566,0.24567 -0.0487,0.44667 0.43772,0.44667 0.48641,0 0.70473,0.29067 0.48517,0.64593 -0.67145,1.08642 1.5976,1.51868 7.97184,1.51868 4.54679,0 6.19479,-0.25562 6.48256,-1.00553 0.50448,-1.31464 -4.4808,-11.19861 -5.92856,-11.75417 -0.90353,-0.34672 -0.9332,-0.54557 -0.15501,-1.03887 0.77912,-0.49388 0.78253,-0.612188 0.0179,-0.621135 -0.51948,-0.0058 -0.76001,-0.309562 -0.53452,-0.674414 0.22549,-0.364853 -0.0646,-1.13793 -0.6446,-1.717945 -0.58001,-0.580023 -0.85358,-1.255584 -0.60791,-1.501246 0.24569,-0.245669 0.0138,-0.446667 -0.51536,-0.446667 -0.52913,0 -0.77833,-0.183718 -0.55378,-0.408268 0.22454,-0.22455 -0.69098,-2.077379 -2.03449,-4.117403 -1.34352,-2.040032 -3.01542,-5.102014 -3.71532,-6.80441 -0.69991,-1.702395 -1.51608,-3.096478 -1.81371,-3.097964 -0.29763,-0.0014 -0.54115,-0.528692 -0.54115,-1.171561 0,-0.642875 -1.46112,-2.56881 -3.24692,-4.279857 -1.78581,-1.711047 -3.24692,-3.378131 -3.24692,-3.704627 0,-0.326495 2.1105,-2.77802 4.68999,-5.44784 2.5795,-2.669819 4.69,-5.366293 4.69,-5.992165 0,-0.685092 0.33594,-0.930326 0.84415,-0.616232 0.5676,0.350797 0.69321,0.128364 0.38341,-0.678954 -0.2534,-0.660369 -0.12912,-1.200671 0.27619,-1.200671 1.24979,0 0.26724,-20.362136 -1.11118,-23.027698 -0.63314,-1.224363 -1.52163,-2.226116 -1.97444,-2.226116 -0.45279,0 -0.60225,-0.221007 -0.33213,-0.491126 0.56883,-0.568833 -3.04961,-4.559636 -4.1342,-4.559636 -0.4001,0 -1.61844,-0.853626 -2.70743,-1.896946 -1.30917,-1.254265 -2.9115,-1.956429 -4.72948,-2.072519 -1.51222,-0.09657 -4.2106,-0.368159 -5.99641,-0.603541 -1.7858,-0.235381 -10.796,-0.631081 -20.02266,-0.879333 l -16.77575,-0.451367 0.002,32.715276 c 0.001,17.993399 0.21481,38.803249 0.47486,46.244105 l 0.4728,13.52883 h 6.37976 6.37976 V 94.915028 Z M 468.0236,94.734644 c 0.57337,-0.892903 1.58681,-3.520851 2.2521,-5.839887 l 1.20962,-4.216434 10.02473,0.247978 c 9.62086,0.237977 10.09124,0.320644 11.67563,2.051814 0.908,0.992114 1.54384,2.332644 1.41298,2.978955 -0.13085,0.64631 0.28853,1.701558 0.93197,2.344996 0.64344,0.643439 0.93402,1.169887 0.64575,1.169887 -0.28828,0 0.0636,0.649384 0.78182,1.443075 2.73759,3.024996 10.05502,1.054087 7.41714,-1.997764 -1.31863,-1.525561 -2.76752,-5.658254 -2.1872,-6.23858 0.23216,-0.232154 0.0214,-0.422106 -0.46831,-0.422106 -0.57955,0 -0.7205,-0.53536 -0.40372,-1.533434 0.34947,-1.10108 0.23966,-1.380763 -0.38945,-0.991948 -0.62911,0.388815 -0.73892,0.109133 -0.38945,-0.991948 0.26768,-0.843391 0.2213,-1.533664 -0.10308,-1.533945 -0.32438,-2.75e-4 -0.63924,-0.854423 -0.6997,-1.898099 -0.0605,-1.043668 -0.38515,-2.098693 -0.72154,-2.344484 -0.33639,-0.245792 -0.66209,-1.04742 -0.72379,-1.78139 -0.21349,-2.539718 -10.66748,-32.106028 -11.22922,-31.758854 -0.31018,0.191705 -0.56397,0.0047 -0.56397,-0.415567 0,-0.999494 -4.93237,-0.981853 -7.82924,0.028 -2.04742,0.713732 -2.53269,1.591277 -2.21066,3.997586 0.0339,0.253265 -0.27545,0.668804 -0.68742,0.923419 -1.01663,0.628314 -14.6349,39.706136 -14.12483,40.531431 0.22277,0.360459 0.0265,0.65538 -0.43628,0.65538 -0.46272,0 -0.65442,0.487038 -0.42599,1.082306 0.22842,0.595269 0.0661,1.082306 -0.36077,1.082306 -0.42685,0 -0.59725,0.466063 -0.37866,1.035688 0.21859,0.569632 0.01,1.166214 -0.46396,1.325739 -0.64067,0.215725 -0.60764,0.59744 0.12888,1.489693 1.56997,1.901908 7.00092,1.625141 8.31662,-0.423816 z m 81.59483,-14.490191 c 1.49026,-0.125945 2.40554,-3.147109 2.49581,-8.238242 l 0.0416,-2.344997 h -3.96846 c -2.91103,0 -3.96846,0.267821 -3.96846,1.005109 0,0.552814 0.50879,1.20035 1.13063,1.438977 0.73732,0.282929 1.05107,1.125541 0.90192,2.422187 -0.3509,3.050697 -2.94044,3.028589 -6.02043,-0.05137 -2.68054,-2.680541 -2.90995,-3.692202 -1.76888,-7.800268 0.83723,-3.01417 1.92505,-3.483927 8.10176,-3.498595 3.59324,-0.0085 4.14884,-0.193653 4.14884,-1.382343 0,-0.89073 -0.79759,-1.650535 -2.27228,-2.164613 -2.92403,-1.019342 -9.99386,-1.039151 -9.99386,-0.02802 0,0.420266 -0.32169,0.565304 -0.71487,0.322306 -0.39318,-0.242997 -1.26504,0.711916 -1.93748,2.12203 -0.67243,1.410114 -1.47698,2.563844 -1.78787,2.563844 -0.31089,0 -0.37836,0.487038 -0.14993,1.082306 0.22843,0.595268 0.0559,1.082306 -0.38341,1.082306 -0.43931,0 -0.79874,1.115284 -0.79874,2.47841 0,7.21632 5.54565,12.434999 12.26614,11.542926 1.78581,-0.237047 3.8909,-0.485421 4.67798,-0.551947 z"
     id="path4001"
     inkscape:connector-curvature="0"
     transform="matrix(0.93750273,0,0,0.93750273,-8.8527306e-4,0)" />
  <path
     style="fill:#333333;stroke-width:0.72153753"
     d="m 364.73645,64.587967 c -1.61312,-0.648394 -1.62346,-0.751506 -1.62346,-16.188859 0,-17.596562 -0.71518,-16.030567 6.77142,-14.826892 2.42683,0.390179 6.94606,1.04016 10.04273,1.444403 6.75587,0.881917 9.24579,2.056771 11.25749,5.311776 1.92998,3.122762 2.66607,9.925854 1.52887,14.130094 -1.58664,5.865833 -5.81018,8.226064 -16.50781,9.225024 -3.27868,0.306168 -4.29985,0.611939 -3.32151,0.994566 0.92172,0.360485 0.0335,0.554213 -2.55581,0.557461 -2.18265,0.0027 -4.69902,-0.28867 -5.59192,-0.647573 z"
     id="path4003"
     inkscape:connector-curvature="0"
     transform="matrix(0.93750273,0,0,0.93750273,-8.8527306e-4,0)" />
  <path
     style="opacity:0.01000001;fill:#333639;fill-opacity:0;stroke-width:1.02040815"
     d="M 234.89333,150.4096 -1.0760607,150.15014 V 74.131905 -1.8863317 H 293.8219 588.71986 V 74.644281 151.17489 l -58.92857,-0.25292 c -32.41072,-0.13911 -165.1148,-0.36967 -294.89796,-0.51237 z m 2.04081,-8.05292 3.82653,-0.63248 -6.5e-4,-32.77465 -6.6e-4,-32.774657 28.06189,0.286631 28.06187,0.286631 V 68.043157 59.338158 H 268.8219 240.76067 l -5.4e-4,-20.153061 -5.4e-4,-20.153061 31.37809,0.278881 31.3781,0.278883 0.088,-9.352292 0.0879,-9.35229226 -10.70583,0.65504256 c -5.8882,0.3602735 -24.4099,0.6550426 -41.15933,0.6550426 h -30.4536 V 72.01844 c 0,65.64018 0.10698,69.8511 1.78571,70.28979 2.76782,0.72331 9.54836,0.74715 13.77551,0.0485 z M 363.20965,94.918088 V 75.395976 l 3.82653,0.63452 c 20.30732,3.367378 19.76363,2.92301 32.40001,26.481404 l 6.1245,11.41809 6.52696,0.30773 c 3.58983,0.16924 6.92951,-0.0948 7.42152,-0.58684 1.43101,-1.43101 -15.71836,-33.893319 -20.06022,-37.97228 -1.4112,-1.325759 -2.56583,-2.83082 -2.56583,-3.344582 0,-0.513761 2.29135,-3.504942 5.09188,-6.647068 5.93711,-6.661296 6.66505,-9.354723 5.66358,-20.955826 -0.84991,-9.845394 -2.7997,-13.625413 -9.35442,-18.135173 -4.47604,-3.079596 -4.78104,-3.134051 -22.612,-4.037093 -9.94111,-0.503464 -20.09823,-0.928983 -22.57136,-0.945596 l -4.49662,-0.03021 0.64183,44.132653 c 0.353,24.272959 0.93768,45.165825 1.2993,46.428575 0.58599,2.0463 1.3102,2.29592 6.66091,2.29592 h 6.00343 z m 104.71976,-0.04344 c 0.63158,-0.484767 1.72442,-2.938996 2.42853,-5.453842 l 1.2802,-4.572445 6.75515,0.01123 c 12.05388,0.02004 13.66434,0.601566 16.4922,5.955239 1.97085,3.731186 3.13532,4.819521 5.43827,5.082692 1.61173,0.18418 3.31809,-0.05278 3.79188,-0.526582 0.77998,-0.779981 -13.87434,-46.589426 -16.43359,-51.371412 -1.24796,-2.331831 -6.79995,-2.766301 -9.36428,-0.7328 -0.88467,0.70153 -2.7972,4.30862 -4.25009,8.015755 -2.45136,6.254853 -14.93966,42.571761 -14.93966,43.445681 0,0.214521 1.03316,0.774087 2.29592,1.243481 2.32233,0.86326 4.41025,0.51118 6.50547,-1.097 z M 550.76067,79.54224 c 0.67347,-0.67347 1.22449,-3.19898 1.22449,-5.612245 V 69.54224 h -4.08163 c -3.87409,0 -5.28561,1.176271 -3.06122,2.55102 1.62345,1.003345 1.18848,4.591837 -0.55658,4.591837 -0.86735,0 -2.74807,-1.171066 -4.17937,-2.602371 -2.03298,-2.032975 -2.45141,-3.203862 -1.9124,-5.351434 1.06162,-4.22987 2.34041,-5.180786 7.41518,-5.514014 6.05527,-0.397611 6.69129,-2.376612 1.28443,-3.996546 -5.44007,-1.629885 -8.91449,-0.415926 -12.0565,4.21253 -5.3094,7.821211 0.0781,17.333468 9.81726,17.333468 2.68502,0 5.43287,-0.551021 6.10634,-1.22449 z"
     id="path4842"
     inkscape:connector-curvature="0"
     transform="matrix(0.93750273,0,0,0.93750273,-8.8527306e-4,0)" />
</svg>
