<?xml version="1.0" encoding="UTF-8" standalone="no"?>
<svg
   xmlns:dc="http://purl.org/dc/elements/1.1/"
   xmlns:cc="http://creativecommons.org/ns#"
   xmlns:rdf="http://www.w3.org/1999/02/22-rdf-syntax-ns#"
   xmlns:svg="http://www.w3.org/2000/svg"
   xmlns="http://www.w3.org/2000/svg"
   xmlns:sodipodi="http://sodipodi.sourceforge.net/DTD/sodipodi-0.dtd"
   xmlns:inkscape="http://www.inkscape.org/namespaces/inkscape"
   width="6.07778in"
   height="1.54444in"
   viewBox="0 0 547 139"
   version="1.1"
   id="svg3"
   sodipodi:docname="oikos-logo.svg"
   inkscape:export-filename="D:\trondapptest\swap-frontend-master\public\oikos-logo.png"
   inkscape:export-xdpi="96"
   inkscape:export-ydpi="96"
   inkscape:version="0.92.4 (5da689c313, 2019-01-14)">
  <metadata
     id="metadata9">
    <rdf:RDF>
      <cc:Work
         rdf:about="">
        <dc:format>image/svg+xml</dc:format>
        <dc:type
           rdf:resource="http://purl.org/dc/dcmitype/StillImage" />
        <dc:title></dc:title>
      </cc:Work>
    </rdf:RDF>
  </metadata>
  <defs
     id="defs7" />
  <sodipodi:namedview
     pagecolor="#ffffff"
     bordercolor="#666666"
     borderopacity="1"
     objecttolerance="10"
     gridtolerance="10"
     guidetolerance="10"
     inkscape:pageopacity="0"
     inkscape:pageshadow="2"
     inkscape:window-width="1295"
     inkscape:window-height="819"
     id="namedview5"
     showgrid="false"
     inkscape:zoom="1.3859293"
     inkscape:cx="384.03758"
     inkscape:cy="164.75661"
     inkscape:window-x="0"
     inkscape:window-y="0"
     inkscape:window-maximized="0"
     inkscape:current-layer="svg3" />
  <path
     style="fill:#ffffff;stroke-width:1.02040815"
     d="M -1.0764131,74.13827 V -2.3923422 H 293.82155 588.71951 V 74.13827 150.66888 H 293.82155 -1.0764131 Z M 241.78073,109.34235 V 76.179086 h 27.55102 27.55102 V 67.505617 58.832148 H 269.33175 241.78073 V 38.934188 19.036229 h 30.04182 c 16.523,0 30.24261,-0.344388 30.48801,-0.765306 0.2454,-0.420918 0.77086,-4.323979 1.16769,-8.6734693 l 0.7215,-7.9081633 H 262.78616 221.37257 V 72.097454 142.50562 h 10.20408 10.20408 z m 121.19583,-13.988058 0.27746,-19.090102 7.37809,0.40274 c 4.05795,0.221506 8.22688,0.728452 9.26429,1.126547 1.17443,0.450671 2.22652,0.186369 2.78801,-0.700394 0.7154,-1.129817 0.90503,-1.042645 0.91743,0.421735 0.008,1.015264 0.36001,1.63602 0.78093,1.379456 1.23253,-0.751265 6.74027,7.247437 12.183,17.692976 2.7781,5.33163 6.30111,11.66682 7.82892,14.07819 l 2.77784,4.38432 6.25372,-0.30268 c 4.22098,-0.2043 6.406,-0.76345 6.72219,-1.72024 0.28413,-0.85971 0.0148,-1.13717 -0.68431,-0.70508 -1.18151,0.73021 -1.24544,0.60992 -1.64743,-3.09975 -0.12881,-1.18863 -3.28449,-7.70741 -7.01263,-14.486177 -3.72815,-6.778765 -6.77844,-12.759669 -6.77844,-13.290899 0,-0.531228 -0.7545,-1.255399 -1.67667,-1.609266 -0.92216,-0.353867 -1.41856,-0.901491 -1.10311,-1.216941 0.97088,-0.970883 -3.67725,-5.590818 -5.08244,-5.051599 -2.68381,1.029876 -1.20099,-1.470314 2.75978,-4.653277 2.24468,-1.803875 3.88016,-3.480846 3.63441,-3.726603 -0.24576,-0.245757 0.60249,-1.431803 1.88499,-2.63566 1.2825,-1.203856 2.36758,-2.877604 2.41128,-3.71944 0.0437,-0.841837 0.40406,-3.91179 0.80079,-6.822118 0.39672,-2.910327 0.36956,-6.124613 -0.0604,-7.142857 -0.42993,-1.018244 -0.77951,-3.343699 -0.77686,-5.167678 0.003,-1.82398 -0.39481,-3.316327 -0.88327,-3.316327 -0.48847,0 -0.90158,-0.57398 -0.91803,-1.27551 -0.0452,-1.927859 -5.99981,-8.08592 -7.13835,-7.382262 -0.54721,0.338222 -0.99497,-0.07383 -0.99497,-0.915663 0,-2.179215 -2.10283,-3.195252 -3.15968,-1.526682 -0.72488,1.144448 -0.89362,1.105464 -0.90633,-0.209406 -0.0172,-1.781601 -3.06739,-2.284824 -3.09247,-0.510205 -0.008,0.607993 -0.45022,0.417977 -0.98139,-0.422258 -0.78979,-1.249337 -4.41254,-1.579344 -19.88233,-1.811134 L 349.944,22.046613 v 46.502683 46.502674 l 6.37755,-0.30378 6.37755,-0.3038 z m 104.82458,-0.807859 c 1.0158,-1.122449 1.51905,-2.040816 1.11833,-2.040816 -0.40071,0 -0.36412,-0.57398 0.0813,-1.27551 0.44545,-0.701531 0.87434,-1.619898 0.95308,-2.040817 0.0788,-0.420918 0.25797,-0.994897 0.39828,-1.27551 0.1403,-0.280612 0.3125,-1.084183 0.38265,-1.785714 0.15723,-1.572197 17.29087,-3.24862 17.81462,-1.743052 0.18709,0.53776 1.16402,0.977746 2.17098,0.977746 1.00696,0 2.40247,0.688775 3.10114,1.530612 0.69866,0.841837 0.92825,1.530612 0.5102,1.530612 -0.41805,0 -0.18846,0.688776 0.5102,1.530613 0.69867,0.841836 0.9739,1.530612 0.61163,1.530612 -0.36227,0 0.0935,1.147959 1.01282,2.55102 1.82347,2.782979 7.55923,3.697768 7.55923,1.205614 0,-2.090676 -3.14594,-12.3246 -4.09453,-13.319752 -0.46642,-0.489306 -0.6052,-1.522469 -0.3084,-2.295918 0.29681,-0.773449 0.0457,-1.40627 -0.55792,-1.40627 -0.60365,0 -0.83324,-0.688776 -0.5102,-1.530613 0.32305,-0.841836 0.0519,-1.530612 -0.60245,-1.530612 -0.65439,0 -0.90601,-0.459183 -0.55916,-1.020408 0.34686,-0.561224 0.2662,-1.594388 -0.17925,-2.295918 -0.44545,-0.701531 -0.87434,-1.619898 -0.95308,-2.040817 -0.0788,-0.420918 -0.25797,-0.994898 -0.39828,-1.27551 -0.1403,-0.280612 -0.3699,-0.969388 -0.5102,-1.530612 -0.14031,-0.561225 -0.3699,-1.25 -0.51021,-1.530612 -0.1403,-0.280613 -0.36989,-0.969388 -0.5102,-1.530613 -0.14031,-0.561224 -0.34763,-1.135204 -0.46072,-1.27551 -0.1131,-0.140306 -0.35716,-1.042991 -0.54235,-2.005965 -0.18521,-0.962975 -1.56534,-5.440015 -3.06696,-9.94898 l -2.73021,-8.198116 h -4.98235 c -5.2548,0 -6.5588,1.09194 -7.52397,6.300444 -0.24186,1.305164 -0.47387,2.487821 -0.51557,2.628127 -0.0417,0.140307 -0.11488,0.59949 -0.1626,1.020409 -0.0478,0.420918 -0.56314,1.339285 -1.14535,2.040816 -0.58223,0.701531 -0.71654,1.27551 -0.29849,1.27551 0.41805,0 0.18846,0.688776 -0.51021,1.530612 -0.69866,0.841837 -0.86968,1.537644 -0.38004,1.546238 0.48964,0.0086 0.38398,0.352982 -0.23479,0.765306 -1.02915,0.685778 -4.2131,9.124202 -5.01619,13.294361 -0.1844,0.957569 -0.37041,1.85583 -0.41335,1.996136 -0.043,0.140306 0.0367,0.41412 0.17703,0.608475 0.1403,0.194355 -0.32131,1.047907 -1.02582,1.896781 -1.43131,1.724635 -5.53334,13.055969 -4.72635,13.055969 0.2835,0 0.15101,0.573979 -0.29443,1.27551 -2.82836,4.454361 3.6007,6.918235 7.32211,2.806122 z M 550.1893,79.374782 c 0.41553,-0.39992 1.05193,-2.889699 1.41422,-5.532841 l 0.65869,-4.805712 h -4.22034 c -4.68837,0 -5.23063,1.030505 -2.15871,4.102434 1.68411,1.68411 1.82425,2.320194 0.7653,3.473747 -1.63859,1.784998 -2.69565,1.604901 -5.53792,-0.943528 -3.06309,-2.746399 -4.63726,-7.039492 -3.13284,-8.543904 0.63248,-0.632485 0.82854,-1.149973 0.43568,-1.149973 -0.39285,0 0.0893,-0.830153 1.07143,-1.844784 1.28947,-1.332119 2.63643,-1.672191 4.84694,-1.223721 5.87168,1.191252 8.79309,-0.805499 4.52248,-3.091064 -2.49792,-1.336841 -10.20327,-1.000597 -11.67857,0.509628 -4.10346,4.200594 -5.19208,10.894424 -2.5689,15.795897 1.68591,3.150137 6.92133,5.273414 11.2556,4.564825 1.96429,-0.321131 3.91141,-0.911082 4.32694,-1.311004 z"
     id="path3985"
     inkscape:connector-curvature="0"
     transform="matrix(0.93750273,0,0,0.93750273,-8.8527306e-4,0)" />
  <rect
     style="fill:#000000;stroke-width:0.93750274"
     id="rect3963"
     width="553.89191"
     height="144.45195"
     x="-1.9141561"
     y="-2.5820377"
     inkscape:export-xdpi="96"
     inkscape:export-ydpi="96"
     inkscape:export-filename="D:\trondapptest\swap-frontend-master\public\locales\oikos-logo-dark.svg.png" />
  <text
     xml:space="preserve"
     style="font-style:normal;font-weight:normal;font-size:37.50011063px;line-height:1.25;font-family:sans-serif;letter-spacing:0px;word-spacing:0px;fill:#ffffff;fill-opacity:1;stroke:none;stroke-width:0.93750274;"
     x="190.50313"
     y="133.2262"
     id="text3943"><tspan
       sodipodi:role="line"
       id="tspan3941"
       x="190.50313"
       y="133.2262"
       style="font-size:180.0005188px;stroke-width:0.93750274;fill:#ffffff;">F</tspan></text>
  <text
     xml:space="preserve"
     style="font-style:normal;font-weight:normal;font-size:48.28168488px;line-height:1.25;font-family:sans-serif;letter-spacing:0px;word-spacing:0px;fill:#ffffff;fill-opacity:1;stroke:none;stroke-width:1.2070421;"
     x="324.22388"
     y="105.27333"
     id="text3949"
     transform="scale(0.98022561,1.0201733)"><tspan
       sodipodi:role="line"
       id="tspan3947"
       x="324.22388"
       y="105.27333"
       style="font-size:115.87602997px;stroke-width:1.2070421;fill:#ffffff;">R</tspan></text>
  <text
     xml:space="preserve"
     style="font-style:normal;font-weight:normal;font-size:66.07475281px;line-height:1.25;font-family:sans-serif;letter-spacing:0px;word-spacing:0px;fill:#ffffff;fill-opacity:1;stroke:none;stroke-width:1.6518687;"
     x="449.4342"
     y="86.361908"
     id="text3953"
     transform="scale(0.95768681,1.0441827)"><tspan
       sodipodi:role="line"
       id="tspan3951"
       x="449.4342"
       y="86.361908"
       style="stroke-width:1.6518687;fill:#ffffff;">A</tspan></text>
  <text
     xml:space="preserve"
     style="font-style:normal;font-weight:normal;font-size:26.8005352px;line-height:1.25;font-family:sans-serif;letter-spacing:0px;word-spacing:0px;fill:#ffffff;fill-opacity:1;stroke:none;stroke-width:0.67001337;"
     x="509.50711"
     y="73.890907"
     id="text3957"
     transform="scale(0.97877766,1.0216825)"><tspan
       sodipodi:role="line"
       id="tspan3955"
       x="509.50711"
       y="73.890907"
       style="stroke-width:0.67001337;fill:#ffffff;">G</tspan></text>
  <path
     style="fill:#999999;stroke-width:1.02040815"
     d="M -1.0764131,74.13827 V -2.3923422 H 293.82155 588.71951 V 74.13827 150.66888 H 293.82155 -1.0764131 Z M 241.78073,109.34235 V 76.179086 h 27.55102 27.55102 V 67.505617 58.832148 H 269.33175 241.78073 V 38.949373 19.066598 l 30.35714,-0.270286 30.35715,-0.270287 0.29636,-8.418367 0.29637,-8.4183676 H 262.23016 221.37257 V 72.097454 142.50562 h 10.20408 10.20408 z M 363.2093,95.566842 V 76.179086 h 7.52551 c 15.824,0 17.99426,1.797201 28.4224,23.536725 l 7.30983,15.238789 h 6.88451 6.8845 l -3.37251,-7.39796 c -9.99425,-21.923377 -17.13296,-33.72126 -21.18177,-35.006301 -1.96002,-0.622085 -1.8756,-0.796374 1.07868,-2.227179 4.5623,-2.209588 9.02595,-7.685006 10.39655,-12.753125 1.70647,-6.310108 0.71571,-17.732044 -1.99726,-23.025246 -2.73032,-5.327063 -9.44122,-9.868021 -16.85952,-11.408052 -2.89657,-0.601327 -12.5969,-0.966368 -21.55627,-0.811201 l -16.28975,0.282122 -0.2655,46.173469 -0.2655,46.173473 h 6.64305 6.64305 z m 106.13362,-5.645811 2.21837,-6.666217 10.8192,0.288666 10.81919,0.288668 2.03802,6.377551 c 2.03727,6.375231 2.03946,6.377551 5.99194,6.377551 3.6303,0 3.89586,-0.187916 3.24446,-2.295919 -0.39021,-1.262755 -4.5538,-13.282583 -9.25243,-26.71073 -4.69864,-13.428147 -8.54298,-24.563351 -8.54298,-24.744898 0,-0.181547 -1.97891,-0.330086 -4.39756,-0.330086 h -4.39757 l -9.00362,25.765306 c -4.95199,14.170918 -9.22119,26.339286 -9.48712,27.040816 -0.33707,0.889242 0.76043,1.275511 3.62411,1.275511 h 4.10762 z m 80.04286,-9.824103 c 2.26394,-1.031522 2.59903,-1.820879 2.59903,-6.122449 v -4.93825 h -4.08163 c -2.94785,0 -4.08163,0.425171 -4.08163,1.530612 0,0.86674 0.91456,1.530613 2.10859,1.530613 1.69828,0 2.04576,0.546039 1.78571,2.806122 -0.72276,6.281531 -11.03716,2.209442 -11.03716,-4.357436 0,-2.882688 1.669,-6.66989 3.46908,-7.871836 1.66141,-1.109347 7.5372,-0.939109 8.26561,0.239476 1.04388,1.689033 2.55102,1.150676 2.55102,-0.911235 0,-2.374479 -1.91384,-3.170397 -7.62347,-3.170397 -5.498,0 -8.52361,2.328592 -9.6777,7.448209 -2.38534,10.581541 6.2219,18.145358 15.72255,13.816571 z"
     id="path3965"
     inkscape:connector-curvature="0"
     transform="matrix(0.93750273,0,0,0.93750273,-8.8527306e-4,0)" />
  <path
     style="fill:#999999;stroke-width:1.02040815"
     d="M 363.2093,49.13827 V 33.321944 l 9.94898,0.0016 c 15.835,0.0025 21.17347,3.989894 21.17347,15.814741 0,11.824847 -5.33847,15.812217 -21.17347,15.814741 l -9.94898,0.0016 z"
     id="path3967"
     inkscape:connector-curvature="0"
     transform="matrix(0.93750273,0,0,0.93750273,-8.8527306e-4,0)" />
  <path
     style="fill:#808080;stroke-width:1.02040815"
     d="m 477.51816,65.209699 c 2.06878,-6.033164 3.98019,-11.654754 4.24756,-12.492423 0.26738,-0.837669 2.36668,4.098555 4.66511,10.969388 l 4.17895,12.492422 h -8.42652 -8.42653 z"
     id="path3969"
     inkscape:connector-curvature="0"
     transform="matrix(0.93750273,0,0,0.93750273,-8.8527306e-4,0)" />
  <path
     style="fill:#666666;stroke-width:1.02040815"
     d="M -1.0764131,74.13827 V -2.3923422 H 293.82155 588.71951 V 74.13827 150.66888 H 293.82155 -1.0764131 Z M 241.78073,109.08725 V 76.179086 h 27.29592 27.29592 V 67.505617 58.832148 H 269.07665 241.78073 V 38.934188 19.036229 h 30.53728 30.53726 l 0.33008,-8.675851 0.33007,-8.6758514 -41.07142,0.00238 -41.07143,0.00238 V 71.842352 141.99541 h 10.20408 10.20408 z M 363.2093,95.203411 V 75.962429 l 9.43878,0.731878 c 14.43942,1.119624 15.36845,1.972637 26.49701,24.329003 l 6.52566,13.10952 7.3412,0.15579 c 4.03767,0.0857 7.34098,-0.0248 7.34071,-0.24539 -0.002,-1.73353 -14.40899,-29.700878 -15.29983,-29.700878 -0.6312,0 -0.8993,-0.40182 -0.59578,-0.892933 0.70394,-1.138996 -4.65398,-8.579416 -7.72924,-10.733404 -1.28697,-0.901433 -1.77992,-1.638969 -1.09544,-1.638969 1.53428,0 9.66821,-7.22845 8.94629,-7.95037 -0.28672,-0.28672 0.27512,-1.103642 1.24854,-1.815379 1.47327,-1.077219 1.76793,-2.975041 1.75837,-11.325384 -0.006,-5.517225 -0.35734,-11.28565 -0.78005,-12.818725 -0.89342,-3.240249 -6.68621,-10.19649 -7.87781,-9.460038 -0.44588,0.275567 -1.06442,-0.1602 -1.37455,-0.968371 -1.21902,-3.176723 -10.50492,-4.641325 -29.42702,-4.641325 H 349.944 v 46.173469 46.173467 h 6.63265 6.63265 z m 106.50147,-5.457901 1.95096,-6.099105 10.3146,0.464069 c 5.67303,0.255239 10.60255,0.756214 10.95448,1.11328 0.35193,0.357065 1.38387,2.945128 2.2932,5.751251 1.61937,4.997307 1.73716,5.102041 5.73767,5.102041 2.58721,0 4.08436,-0.467545 4.08436,-1.275511 0,-0.70153 -0.36079,-1.27551 -0.80175,-1.27551 -0.44097,0 -0.80613,-0.803571 -0.81149,-1.785714 -0.005,-0.982143 -3.66243,-12.475806 -8.12683,-25.541475 l -8.11708,-23.75576 -4.98934,0.286373 -4.98935,0.286372 -8.98603,25.510204 c -4.94233,14.030612 -9.01125,25.969388 -9.04204,26.530612 -0.0308,0.561225 1.88657,0.968112 4.26084,0.904193 l 4.31685,-0.116215 z m 80.48833,-9.642991 c 1.33548,-0.698518 1.78571,-2.211343 1.78571,-6.000151 v -5.066139 h -4.08163 c -2.94785,0 -4.08163,0.425171 -4.08163,1.530612 0,0.841837 0.68877,1.530613 1.53061,1.530613 0.95238,0 1.53061,0.963718 1.53061,2.55102 0,2.009274 -0.51774,2.551021 -2.43798,2.551021 -5.81832,0 -8.82391,-6.455077 -5.71252,-12.268752 1.01092,-1.888926 1.90324,-2.144892 6.44761,-1.849545 4.70831,0.306001 5.27432,0.123777 5.27432,-1.69803 0,-1.773547 -0.78342,-2.081342 -5.98205,-2.350263 -4.50093,-0.23283 -6.45299,0.116747 -7.8841,1.411884 -1.04613,0.946732 -1.65619,2.119147 -1.35569,2.605366 0.3005,0.486218 0.0809,0.884033 -0.48803,0.884033 -1.64808,0 -2.39172,6.364287 -1.13393,9.704496 1.79584,4.769046 5.47097,7.361619 10.46302,7.380998 2.38698,0.0093 5.14353,-0.403457 6.12568,-0.917163 z"
     id="path3971"
     inkscape:connector-curvature="0"
     transform="matrix(0.93750273,0,0,0.93750273,-8.8527306e-4,0)" />
  <path
     style="fill:#666666;stroke-width:1.02040815"
     d="M 363.2093,49.13827 V 33.059043 l 10.36486,0.734833 c 5.83624,0.413769 11.84003,1.438292 13.74115,2.344874 4.72644,2.253881 6.8415,7.163845 6.30154,14.628617 -0.72211,9.983142 -4.55777,12.61747 -19.96147,13.70954 l -10.44608,0.74059 z"
     id="path3973"
     inkscape:connector-curvature="0"
     transform="matrix(0.93750273,0,0,0.93750273,-8.8527306e-4,0)" />
  <path
     style="fill:#666666;stroke-width:1.02040815"
     d="m 474.68498,74.903576 c 0.25825,-0.70153 2.00028,-5.867347 3.87119,-11.479592 l 3.40165,-10.204081 1.47849,3.82653 c 0.81317,2.104592 1.86096,3.826531 2.32841,3.826531 0.46746,0 0.58561,0.688775 0.26257,1.530612 -0.32305,0.841837 -0.0935,1.530612 0.5102,1.530612 0.60366,0 0.83325,0.688776 0.51021,1.530613 -0.32305,0.841836 -0.17744,1.530612 0.32357,1.530612 0.501,0 0.94041,0.803571 0.97645,1.785714 0.036,0.982143 0.41381,3.04847 0.83948,4.591837 l 0.77395,2.806122 h -7.87285 c -5.86843,0 -7.75331,-0.324743 -7.40332,-1.27551 z"
     id="path3975"
     inkscape:connector-curvature="0"
     transform="matrix(0.93750273,0,0,0.93750273,-8.8527306e-4,0)" />
  <path
     style="fill:#000000;stroke-width:1.02040815"
     d="M 222.39297,72.097454 V 2.7096986 h 39.79592 39.79592 v 7.6530614 7.653061 h -30.61224 -30.61225 v 20.918367 20.918368 h 27.55102 27.55102 v 7.653061 7.653061 h -27.55102 -27.55102 v 33.163262 33.16327 h -9.18367 -9.18368 z"
     id="path3977"
     inkscape:connector-curvature="0"
     transform="matrix(0.93750273,0,0,0.93750273,-8.8527306e-4,0)" />
  <path
     style="fill:#000000;stroke-width:1.02040815"
     d="M 350.9644,68.430441 V 22.926696 l 19.13266,0.37073 c 21.67125,0.41992 25.5602,1.442986 31.58971,8.31031 4.16816,4.74733 5.69584,10.478596 5.23351,19.634077 -0.44199,8.752818 -3.71123,14.566991 -9.99274,17.771576 l -4.03458,2.058292 5.03639,5.036393 c 3.92775,3.927754 6.72537,8.531725 12.70919,20.915208 4.22004,8.733348 7.6728,16.111038 7.6728,16.394858 0,0.28383 -2.5278,0.51605 -5.61734,0.51605 h -5.61735 l -6.9434,-14.540818 C 389.56677,77.265139 387.02024,75.175464 370.60726,75.164369 l -8.41837,-0.0057 v 19.387755 19.387756 h -5.61224 -5.61225 z m 36.51406,-4.484202 c 7.6067,-3.452437 10.53599,-14.05076 6.40086,-23.158666 -2.88526,-6.355 -6.42723,-7.809358 -20.21083,-8.298727 l -11.4796,-0.407568 v 16.946863 16.946864 l 10.45919,-0.02241 c 8.14507,-0.01745 11.42632,-0.461362 14.83038,-2.006356 z"
     id="path3979"
     inkscape:connector-curvature="0"
     transform="matrix(0.93750273,0,0,0.93750273,-8.8527306e-4,0)" />
  <path
     style="fill:#000000;stroke-width:1.02040815"
     d=""
     id="path3981"
     inkscape:connector-curvature="0"
     transform="matrix(0.93750273,0,0,0.93750273,-8.8527306e-4,0)" />
  <path
     style="fill:#000000;stroke-width:1.02040815"
     d="m 461.26748,92.825319 c 0.61491,-1.578898 4.25202,-11.824804 8.08247,-22.768682 3.83045,-10.943877 7.51315,-21.414837 8.18379,-23.268799 1.10459,-3.05363 1.55967,-3.341703 4.8359,-3.061224 3.33804,0.285772 3.75296,0.702527 5.3878,5.411656 0.97418,2.806123 5.01007,14.40051 8.96863,25.765306 l 7.19739,20.663266 h -2.92694 c -2.69575,0 -3.1013,-0.523921 -5.13416,-6.632654 l -2.2072,-6.632653 h -11.56292 -11.56292 l -1.89842,6.377551 c -1.77814,5.97347 -2.10697,6.397808 -5.18993,6.697253 -3.22509,0.313251 -3.26895,0.261782 -2.17349,-2.55102 z m 30.26218,-16.901335 c -0.25818,-0.70153 -2.20124,-6.556122 -4.31791,-13.010204 -2.11667,-6.454081 -4.18095,-12.101387 -4.58728,-12.549568 -0.40634,-0.448181 -2.70646,4.832432 -5.11138,11.734694 -2.40492,6.902262 -4.5899,13.123548 -4.85552,13.825078 -0.36576,0.966015 1.92221,1.275511 9.42928,1.275511 7.49986,0 9.79798,-0.310424 9.44281,-1.275511 z"
     id="path3983"
     inkscape:connector-curvature="0"
     transform="matrix(0.93750273,0,0,0.93750273,-8.8527306e-4,0)" />
  <path
     style="fill:#000000;stroke-width:0.36076877"
     d="m 540.8813,80.164995 c -2.8999,-0.766549 -4.67105,-2.150446 -5.94816,-4.647628 -0.98486,-1.925739 -1.08683,-2.449085 -1.08683,-5.577939 0,-3.005489 0.12478,-3.709875 0.96312,-5.43704 1.05225,-2.167834 2.31843,-3.520223 4.26803,-4.558616 1.82172,-0.970282 7.52657,-0.932197 9.56037,0.06382 1.43792,0.704197 2.00898,1.728197 1.33798,2.399202 -0.23035,0.230353 -0.74398,0.151043 -1.47713,-0.228086 -0.6182,-0.31968 -1.94178,-0.736325 -2.94129,-0.92588 -4.46573,-0.846908 -8.14386,1.437338 -9.00547,5.59271 -1.07704,5.194327 0.67039,10.049294 4.08229,11.342029 1.53018,0.579767 5.87358,0.47873 7.11962,-0.165618 1.04367,-0.539705 1.06439,-0.606411 1.06439,-3.427303 V 71.71776 h -1.94006 c -2.04352,0 -3.01275,-0.59859 -2.62124,-1.618865 0.16555,-0.431406 0.89207,-0.545747 3.46767,-0.545747 h 3.25824 l -0.002,3.517495 c -0.003,5.851891 -0.32884,6.40012 -4.32721,7.288136 -2.15141,0.477819 -3.38871,0.436281 -5.7723,-0.193787 z"
     id="path3987"
     inkscape:connector-curvature="0"
     transform="matrix(0.93750273,0,0,0.93750273,-8.8527306e-4,0)" />
  <path
     style="fill:#ffffff;stroke-width:0.72153753"
     d="M -1.2634612,73.99044 V -2.4925388 H 293.84539 588.95424 V 73.99044 150.47342 H 293.84539 -1.2634612 Z M 241.89469,109.16539 V 76.155052 h 27.41842 27.41843 v -8.65845 -8.658451 H 269.31311 241.89469 V 38.995869 19.153587 l 18.21882,-0.180384 c 10.02035,-0.09921 23.83051,-0.0995 30.68924,-6.34e-4 l 12.47042,0.179751 -0.15763,-4.869745 c -0.0867,-2.678359 0.0954,-6.5743769 0.40457,-8.6578165 l 0.56222,-3.7880721 H 262.88698 221.69164 V 72.006211 142.17574 h 10.10152 10.10153 z m 121.06021,-14.611592 -0.20268,-19.842752 3.60769,0.06371 c 1.98423,0.03499 5.23115,0.316539 7.21538,0.625595 l 3.60768,0.561919 -5.05076,0.194498 -5.05076,0.194504 6.799,0.644875 c 12.06662,1.144502 14.1104,2.86954 22.50125,18.991906 2.48112,4.767277 4.77937,8.776667 5.10722,8.909777 0.32785,0.13311 0.41256,0.53898 0.18824,0.90192 -0.22431,0.36292 -0.0448,0.65988 0.39886,0.65988 0.44369,0 0.60603,0.32469 0.36077,0.72154 -0.24527,0.39684 -0.048,0.72153 0.43844,0.72153 0.48641,0 0.68182,0.20255 0.43427,0.45011 -0.24756,0.24756 0.19196,1.70868 0.97671,3.24692 l 1.42683,2.79681 h 7.2007 c 5.88392,0 7.20072,-0.19574 7.20072,-1.07037 0,-2.05145 -5.3526,-11.91716 -6.47168,-11.92835 -0.97644,-0.01 -0.97901,-0.0921 -0.0222,-0.71049 0.86203,-0.55709 0.71517,-0.712017 -0.72154,-0.761204 -1.65603,-0.05671 -1.68559,-0.112582 -0.36077,-0.681875 0.79369,-0.341063 1.01805,-0.642933 0.49857,-0.67082 -0.51949,-0.0279 -0.74384,-0.375409 -0.49858,-0.772255 0.24527,-0.396845 0.0829,-0.721537 -0.36077,-0.721537 -0.44368,0 -0.60603,-0.324692 -0.36076,-0.721538 0.24526,-0.396845 0.0829,-0.721537 -0.36077,-0.721537 -0.44369,0 -0.60604,-0.324692 -0.36077,-0.721538 0.24526,-0.396846 0.15139,-0.721537 -0.20861,-0.721537 -0.35999,0 -1.2235,-1.261739 -1.9189,-2.803874 -0.69541,-1.542127 -2.18816,-4.199262 -3.31724,-5.904738 -1.12906,-1.705484 -1.88902,-3.365965 -1.68878,-3.689972 0.20025,-0.323999 0.0202,-0.589092 -0.40003,-0.589092 -0.42027,0 -0.68295,-0.306646 -0.58374,-0.681442 0.28692,-1.083901 -4.78217,-7.236696 -5.7012,-6.920043 -0.45696,0.15744 -0.99477,-0.340659 -1.19514,-1.106896 -0.20038,-0.766229 -0.14917,-1.393144 0.11379,-1.393144 0.8078,0 8.62295,-7.840235 8.21839,-8.244788 -0.20883,-0.208832 0.13332,-0.576555 0.76033,-0.817161 0.68193,-0.261683 0.96409,-0.895928 0.70219,-1.578424 -0.2681,-0.698655 -0.14238,-0.958363 0.32429,-0.669939 1.18518,0.732477 1.42907,-1.351578 1.25181,-10.696583 -0.20221,-10.660233 -0.54266,-13.541048 -1.64365,-13.908046 -0.47057,-0.156854 -0.70105,-0.53521 -0.51219,-0.840791 0.46939,-0.759492 -4.63784,-6.637616 -5.37258,-6.183523 -0.32326,0.199785 -1.35123,-0.46625 -2.28438,-1.480077 -3.21448,-3.492379 -4.55915,-3.671737 -31.82084,-4.24443 l -16.41498,-0.344833 10e-4,27.210063 c 7.2e-4,14.965534 0.21527,35.733225 0.47656,46.150423 l 0.47509,18.940361 h 6.40034 6.40034 l -0.20268,-19.842744 z m 103.80199,1.369701 c 1.16592,-0.312837 1.85348,-1.508532 2.79492,-4.860529 0.68673,-2.445096 1.32517,-4.932661 1.41874,-5.52793 0.14321,-0.91097 1.7337,-1.054844 10.04687,-0.908841 5.4322,0.0954 10.4647,0.488141 11.18336,0.87275 0.71864,0.384608 1.72368,2.188834 2.2334,4.009389 1.39095,4.968002 3.16468,6.849765 6.45651,6.849765 3.15134,0 5.37082,-1.807834 3.59726,-2.930092 -0.56975,-0.360523 -1.3606,-0.665445 -1.75744,-0.677596 -0.39685,-0.01212 -0.27672,-0.303882 0.26695,-0.648287 0.79814,-0.50561 0.72867,-0.777139 -0.36077,-1.410086 -0.74209,-0.43114 -0.96029,-0.793771 -0.48487,-0.805835 0.60683,-0.01537 0.68494,-0.613184 0.26215,-2.00617 -0.33123,-1.091325 -1.17748,-4.013552 -1.88055,-6.493838 -0.70307,-2.480285 -1.5414,-4.509609 -1.86296,-4.509609 -0.32156,0 -0.39777,-0.487038 -0.16934,-1.082307 0.22843,-0.595268 0.0661,-1.082306 -0.36077,-1.082306 -0.42685,0 -0.58919,-0.487038 -0.36077,-1.082306 0.22843,-0.595269 0.0661,-1.082306 -0.36077,-1.082306 -0.42684,0 -0.58919,-0.487038 -0.36077,-1.082307 0.22844,-0.595268 0.0367,-1.082306 -0.42599,-1.082306 -0.46272,0 -0.66835,-0.27987 -0.45694,-0.621937 0.5191,-0.83992 -4.58867,-15.973426 -5.39125,-15.973426 -0.34923,0 -0.44808,-0.487038 -0.21965,-1.082307 0.22843,-0.595268 0.0367,-1.082306 -0.426,-1.082306 -0.46272,0 -0.66576,-0.284048 -0.4512,-0.631217 0.21456,-0.347169 -0.20114,-2.376493 -0.92379,-4.509609 -1.26134,-3.723242 -1.42678,-3.887894 -4.1356,-4.115894 -3.76897,-0.317233 -8.47201,1.099899 -7.97227,2.402217 0.20873,0.543933 0.14135,1.09112 -0.14973,1.21597 -0.83607,0.358607 -3.76608,8.586176 -3.31668,9.313326 0.22245,0.359938 0.0258,0.654432 -0.43685,0.654432 -0.46273,0 -0.65443,0.487038 -0.426,1.082307 0.22842,0.595268 0.0661,1.082306 -0.36077,1.082306 -0.42685,0 -0.5892,0.487038 -0.36077,1.082306 0.22843,0.595269 0.13063,1.082307 -0.21733,1.082307 -0.80517,0 -3.75116,8.634647 -3.23238,9.474047 0.21328,0.345111 0.009,0.627478 -0.45352,0.627478 -0.46272,0 -0.65442,0.487038 -0.42599,1.082306 0.22842,0.595269 0.0661,1.082307 -0.36077,1.082307 -0.42686,0 -0.59725,0.466062 -0.37866,1.035687 0.21859,0.569633 0.13918,1.137843 -0.17646,1.262691 -0.86586,0.342499 -3.75497,8.531907 -3.28067,9.299349 0.22721,0.367623 0.0345,0.668411 -0.42821,0.668411 -0.46272,0 -0.65443,0.487037 -0.426,1.082306 0.22843,0.595268 0.0661,1.082306 -0.36076,1.082306 -0.42686,0 -0.5892,0.487038 -0.36077,1.082307 0.22842,0.595268 0.15221,1.082306 -0.16937,1.082306 -0.32157,0 -0.98744,1.344296 -1.4797,2.987317 -0.73183,2.442635 -0.71977,3.098419 0.0662,3.596641 1.10728,0.701919 4.58147,0.801931 6.83676,0.196813 z M 547.10506,80.28978 c 0,-0.305391 0.8269,-0.405317 1.83755,-0.222053 2.30816,0.418549 3.21322,-1.611302 3.21322,-7.206566 v -3.921484 l -2.345,0.0098 c -3.42763,0.01443 -5.59192,0.741322 -5.59192,1.878148 0,0.548981 0.40587,0.91698 0.90193,0.817769 0.56401,-0.112806 0.98582,0.833318 1.12586,2.525381 0.21513,2.599281 0.13485,2.705766 -2.03974,2.705766 -1.5568,0 -2.94456,-0.680894 -4.44417,-2.180501 -1.88822,-1.888221 -2.13973,-2.589418 -1.87637,-5.231147 0.59724,-5.990767 0.82887,-6.172641 7.95595,-6.246852 4.32258,-0.04501 4.87038,-0.208237 4.87038,-1.451205 0,-2.03792 -1.06961,-2.427454 -7.10357,-2.587009 -4.93717,-0.130552 -5.56241,0.01537 -7.07934,1.652156 -0.91513,0.987445 -1.48704,2.081492 -1.27089,2.431215 0.21613,0.349722 -0.0788,0.816882 -0.65533,1.038131 -0.65475,0.251253 -0.90013,0.968888 -0.65361,1.911576 0.26871,1.027545 0.1281,1.344543 -0.4405,0.993124 -0.58018,-0.358531 -0.8352,0.378129 -0.8352,2.412587 0,1.660172 0.34597,2.928736 0.79874,2.928736 0.4393,0 0.60712,0.499325 0.37293,1.109616 -0.24189,0.630357 0.0346,1.286307 0.6402,1.518685 0.58629,0.224983 0.90464,0.670135 0.70743,0.989221 -0.53765,0.86995 4.02908,4.452853 5.13477,4.02856 0.52699,-0.202225 1.09991,-0.138347 1.27314,0.141956 0.42826,0.692928 5.50354,0.650855 5.50354,-0.0456 z"
     id="path3989"
     inkscape:connector-curvature="0"
     transform="matrix(0.93750273,0,0,0.93750273,-8.8527306e-4,0)" />
  <path
     style="fill:#ffffff;stroke-width:0.72153753"
     d="m 363.43715,64.694101 c -0.17828,-0.178289 -0.32416,-7.250922 -0.32416,-15.716963 v -15.3928 l 3.42731,0.0059 c 4.89992,0.0085 15.9706,1.330731 18.94036,2.262208 5.38419,1.688778 7.92886,5.939569 7.92886,13.244933 0,8.146711 -2.66139,11.876495 -9.74203,13.652908 -4.32367,1.084735 -19.6197,2.554429 -20.23034,1.943798 z"
     id="path3991"
     inkscape:connector-curvature="0"
     transform="matrix(0.93750273,0,0,0.93750273,-8.8527306e-4,0)" />
  <path
     style="fill:#ffffff;stroke-width:0.72153753"
     d="m 475.45245,75.35333 c -1.02902,-0.598631 -1.12415,-0.972979 -0.4528,-1.781903 0.46744,-0.563234 0.60804,-1.024062 0.31243,-1.024062 -0.29561,0 -0.20063,-0.405865 0.21106,-0.901922 0.41169,-0.496057 0.81504,-1.226614 0.89633,-1.62346 0.0813,-0.396845 0.44761,-1.510114 0.81406,-2.47393 0.36644,-0.963817 1.53135,-4.594117 2.58868,-8.067334 1.05733,-3.473217 2.18503,-6.152642 2.50599,-5.954278 0.32096,0.198364 0.39676,0.662918 0.16844,1.032342 -0.22832,0.369425 -0.14036,0.671681 0.19545,0.671681 0.33582,0 0.66341,0.701342 0.72798,1.558537 0.0646,0.857196 0.38935,1.750099 0.72172,1.984229 0.9272,0.65313 3.08852,6.675745 2.65022,7.384941 -0.21316,0.344897 0.0996,0.814009 0.69492,1.042472 0.59536,0.228462 0.90589,0.875553 0.69007,1.437979 -0.21582,0.562425 -0.0138,1.022592 0.44891,1.022592 0.46272,0 0.61821,0.360994 0.34553,0.802208 -0.27269,0.441214 -0.0483,1.085627 0.49857,1.432027 0.82323,0.521429 0.8081,0.635669 -0.0879,0.663814 -0.82764,0.026 -0.75275,0.283259 0.31829,1.093355 0.77033,0.582648 0.99469,1.059359 0.49857,1.059359 -0.49611,0 -0.70135,0.324692 -0.45609,0.721538 0.60846,0.984517 -12.58747,0.910473 -14.29038,-0.08019 z"
     id="path3993"
     inkscape:connector-curvature="0"
     transform="matrix(0.93750273,0,0,0.93750273,-8.8527306e-4,0)" />
</svg>
